<svg width="96" height="122" viewBox="0 0 96 122" fill="none" xmlns="http://www.w3.org/2000/svg">
<path d="M64.7731 45.8027H47.0781L61.7221 64.1247H79.417L64.7731 45.8027Z" fill="#CFAA2C"/>
<path d="M47.075 0C24.8345 0 6.80518 18.045 6.80518 40.307C6.80518 62.569 24.8345 80.614 47.075 80.614C69.3156 80.614 87.3469 62.567 87.3469 40.307C87.3469 18.047 69.3176 0 47.075 0ZM47.075 68.3994C41.5249 68.3994 36.0994 66.7522 31.4847 63.666C26.8699 60.5798 23.2731 56.1933 21.1492 51.0612C19.0253 45.9291 18.4695 40.2818 19.5523 34.8336C20.6351 29.3854 23.3077 24.3808 27.2323 20.4529C31.1568 16.5249 36.1569 13.85 41.6004 12.7662C47.0439 11.6825 52.6862 12.2387 57.8139 14.3645C62.9415 16.4903 67.3242 20.0902 70.4077 24.709C73.4911 29.3278 75.137 34.758 75.137 40.313C75.137 44.0014 74.4111 47.6536 73.0009 51.0612C71.5906 54.4688 69.5236 57.565 66.9178 60.1731C64.312 62.7812 61.2185 64.85 57.8139 66.2615C54.4092 67.673 50.7602 68.3994 47.075 68.3994V68.3994Z" fill="#231F20"/>
<path d="M79.4166 64.1265H61.7217L75.1456 80.6158H92.8406L79.4166 64.1265Z" fill="#F9BF14"/>
<path d="M0 121.509V92.9502H15.9714C19.3932 92.9502 21.9374 93.747 23.6039 95.3405C25.2703 96.9341 26.1042 99.1193 26.1055 101.896C26.1055 103.81 25.6816 105.446 24.8338 106.806C23.986 108.166 22.6552 109.193 20.8414 109.888L26.9832 121.509H20.0951L14.7853 110.854H6.36269V121.509H0ZM6.36866 105.818H15.4062C16.7808 105.818 17.8336 105.465 18.5647 104.758C19.2957 104.052 19.6566 103.098 19.6473 101.898C19.6473 100.703 19.2818 99.766 18.5507 99.0874C17.8196 98.4088 16.7668 98.0688 15.3923 98.0675H6.36269L6.36866 105.818Z" fill="#231F20"/>
<path d="M31.6758 121.508V92.9498H41.591L45.8043 108.686C45.9502 109.158 46.0962 109.755 46.2421 110.479C46.3881 111.203 46.5453 111.914 46.7138 112.612C46.873 113.319 47.0408 114.158 47.2173 115.13H47.4362C47.614 114.133 47.7679 113.266 47.898 112.531C48.028 111.795 48.1607 111.073 48.296 110.365C48.4287 109.659 48.5534 109.097 48.6702 108.68L52.8814 92.9438H62.3568V121.508H55.9882V103.322C55.9882 102.99 56.0027 102.574 56.0319 102.073C56.0618 101.573 56.0897 101.067 56.1195 100.555C56.1494 100.043 56.1931 99.4376 56.2509 98.7444H56.0319C55.9139 99.1043 55.8117 99.4788 55.7254 99.8678C55.6392 100.257 55.5344 100.631 55.411 100.991C55.2956 101.352 55.1921 101.726 55.1045 102.115L49.93 121.508H43.8738L38.6992 102.115C38.6117 101.726 38.5095 101.351 38.3927 100.991C38.276 100.631 38.1738 100.257 38.0862 99.8678C37.9987 99.4788 37.8958 99.1043 37.7778 98.7444H37.5588C37.6185 99.4655 37.6623 100.091 37.6902 100.617C37.7181 101.143 37.7499 101.657 37.7778 102.157C37.8056 102.657 37.8235 103.045 37.8235 103.322V121.508H31.6758Z" fill="#231F20"/>
<path d="M81.6918 121.998C78.6786 121.998 76.0827 121.492 73.9041 120.479C71.7497 119.489 69.9834 117.814 68.8809 115.714C67.7106 113.549 67.1255 110.719 67.1255 107.224C67.1255 102.203 68.4271 98.4848 71.0303 96.0693C73.6335 93.6537 77.1873 92.4466 81.6918 92.4479C84.0073 92.4171 86.3076 92.8268 88.4705 93.655C90.4079 94.3884 92.0969 95.6582 93.3405 97.3162C94.5545 98.9536 95.1615 101.035 95.1615 103.559H88.6237C88.6237 101.645 87.9802 100.168 86.6932 99.1269C85.4062 98.0858 83.7829 97.5659 81.8232 97.5672C79.0143 97.5672 76.9525 98.364 75.6376 99.9575C74.3227 101.551 73.6646 103.763 73.6633 106.595V107.844C73.6633 110.786 74.3214 113.027 75.6376 114.564C76.9538 116.102 79.0156 116.872 81.8232 116.875C83.9288 116.875 85.6251 116.355 86.9121 115.313C88.1991 114.272 88.8426 112.812 88.8426 110.931H95.1615C95.1615 113.429 94.5691 115.496 93.3843 117.132C92.1994 118.768 90.5834 119.988 88.5361 120.791C86.3506 121.62 84.0287 122.029 81.6918 121.998V121.998Z" fill="#231F20"/>
</svg>
